<svg xmlns="http://www.w3.org/2000/svg" width="48" height="49" viewBox="0 0 48 49">
  <defs>
    <style>
      .cls-1 {
        fill: #323232;
        fill-rule: evenodd;
      }
    </style>
  </defs>
  <path id="Корова" class="cls-1" d="M39.578,24a2.42,2.42,0,0,1-2.127,1.047A9.368,9.368,0,0,1,34.2,24.2a17.054,17.054,0,0,1-1.577,8.344,5.2,5.2,0,0,1,.518,3.079c-0.488,3.386-4.283,5.239-8.524,5.239s-8.018-1.853-8.479-5.239a5.161,5.161,0,0,1,.33-2.617,17.337,17.337,0,0,1-1.787-8.725,9.108,9.108,0,0,1-3.064.759A2.42,2.42,0,0,1,9.484,24a2.312,2.312,0,0,1-.162-2.214c0.812-1.912,3.593-2.743,4.75-3.012l0.1-.022c-1.4-2.9-.723-7.6-0.2-9.191l3.058,0.254c0.056,1,.766,2.881,3.436,5.01l1.586,1.092a12.208,12.208,0,0,1,4.685-.02l1.692-1.165c2.67-2.129,3.38-4.007,3.436-5.01l3.058-.254c0.529,1.6,1.207,6.342-.224,9.239l0.294,0.068c1.157,0.269,3.937,1.1,4.75,3.012A2.312,2.312,0,0,1,39.578,24ZM14.509,20.72s-2.859.663-3.361,1.846,3.155-.131,3.835-0.693A2.342,2.342,0,0,1,14.509,20.72Zm3.3,0.069c-1.752,2.755-1.577,7.006.468,11.372l0.366,0.781-0.317.8a3.174,3.174,0,0,0-.208,1.611c0.329,2.411,3.6,3.509,6.5,3.509s6.2-1.1,6.545-3.523a3.2,3.2,0,0,0-.33-1.905l-0.416-.84,0.379-.857c1.878-4.251,1.97-8.371.244-11.019-1.3-1.991-3.575-3.043-6.587-3.043C21.4,17.676,19.1,18.752,17.806,20.788ZM37.9,22.565c-0.5-1.183-3.361-1.846-3.361-1.846a2.34,2.34,0,0,1-.474,1.152C34.745,22.434,38.4,23.748,37.9,22.565Zm-18.57-6.1s-3.595-2.477-3.735-5.015c-0.4,2.175-.584,5.613.705,6.983A22.034,22.034,0,0,1,19.329,16.468Zm10.232-.094S33.156,13.9,33.3,11.359c0.4,2.175.584,5.613-.7,6.983A22.042,22.042,0,0,0,29.561,16.374ZM24.183,0.8A23.7,23.7,0,1,1,.482,24.5,23.7,23.7,0,0,1,24.183.8Zm0,45.4a21.7,21.7,0,1,1,21.7-21.7A21.726,21.726,0,0,1,24.183,46.2Z"/>
</svg>
