<svg xmlns="http://www.w3.org/2000/svg" width="49" height="49" viewBox="0 0 49 49">
  <defs>
    <style>
      .cls-1 {
        fill: #323232;
        fill-rule: evenodd;
      }
    </style>
  </defs>
  <path id="Мороженко" class="cls-1" d="M30.454,10.447a8.575,8.575,0,0,0-14.639,6.064V31.19a0.809,0.809,0,0,0,.809.809H32.157a0.809,0.809,0,0,0,.809-0.809V16.511A8.519,8.519,0,0,0,30.454,10.447Zm0.894,19.934H17.433V19.489c0.045,0.047.092,0.1,0.143,0.156a2.618,2.618,0,0,0,4.309,0,1.207,1.207,0,0,1,.946-0.6,1.061,1.061,0,0,1,.309.427,10.672,10.672,0,0,1,.488,1.226,9.72,9.72,0,0,0,.7,1.648,1.752,1.752,0,0,0,3.237,0,9.728,9.728,0,0,0,.7-1.648,10.6,10.6,0,0,1,.488-1.226,1.059,1.059,0,0,1,.309-0.427,1.208,1.208,0,0,1,.946.6,3.174,3.174,0,0,0,1.346,1v9.732Zm-9.006,8.58a2.049,2.049,0,0,0,4.1,0V32.8h-4.1v6.164ZM24.5,0.8A23.7,23.7,0,1,1,.8,24.5,23.7,23.7,0,0,1,24.5.8Zm0,45.4A21.7,21.7,0,1,1,46.2,24.5,21.726,21.726,0,0,1,24.5,46.2Z"/>
</svg>
